PathFileType	4	(X/Y/Z)	SUBJ26_1_walk_RCNL2025.trc
DataRate	CameraRate	NumFrames	NumMarkers	Units	OrigDataRate	OrigDataStartFrame	OrigNumFrames
100	100	7	25	mm	100	145	385
Frame#	Time	R_Shoulder			L_Shoulder			C7			J_Notch			R_Elbow			L_Elbow			R_Wrist			L_Wrist			R_Asis			L_Asis			Sacral			Thoracic			Sternum			R_Thigh_Lateral			R_Knee_Lateral			R_Shank_Lateral			R_Ankle_Lateral			R_Heel			R_Toe			L_Thigh_Lateral			L_Knee_Lateral			L_Shank_Lateral			L_Ankle_Lateral			L_Heel			L_Toe		
		X1	Y1	Z1	X2	Y2	Z2	X3	Y3	Z3	X4	Y4	Z4	X5	Y5	Z5	X6	Y6	Z6	X7	Y7	Z7	X8	Y8	Z8	X9	Y9	Z9	X10	Y10	Z10	X11	Y11	Z11	X12	Y12	Z12	X13	Y13	Z13	X14	Y14	Z14	X15	Y15	Z15	X16	Y16	Z16	X17	Y17	Z17	X18	Y18	Z18	X19	Y19	Z19	X20	Y20	Z20	X21	Y21	Z21	X22	Y22	Z22	X23	Y23	Z23	X24	Y24	Z24	X25	Y25	Z25
145	1.44000000	-969.416321	1309.699219	320.338837	-995.935303	1324.550293	-13.931364	-1059.009033	1385.256958	170.641235	-923.566711	1276.423706	144.680298	-1056.873291	999.610535	421.766602	-1087.352295	1010.618103	-117.223885	-987.965759	756.020905	415.096085	-1021.010437	771.974701	-120.720482	-952.476135	910.795837	267.579041	-1003.019226	916.988037	-31.550104	-1180.287964	930.340149	153.813431	-1155.975708	1042.760986	151.571899	-895.854126	1019.912048	137.728912	-1048.788208	581.040466	311.470856	-1060.583130	432.443298	238.417938	-1086.625244	281.773621	275.259186	-1119.296021	49.456482	201.665543	-1172.380493	37.290871	142.260361	-998.490967	39.716545	180.088013	-991.653809	607.337463	-79.507622	-931.070496	456.694855	-12.431150	-1012.778320	303.674591	-78.050758	-1080.553955	106.810387	12.185561	-1138.294067	105.760422	71.980675	-973.862976	52.960030	38.283722
146	1.45000000	-955.926208	1308.282227	320.360229	-984.536682	1323.592651	-13.892697	-1046.152344	1384.173340	171.348907	-911.076660	1275.058838	144.416916	-1041.378540	998.216064	422.941284	-1080.795532	1010.432739	-116.268806	-971.290192	754.965546	416.399231	-1019.395935	770.460144	-118.627258	-940.629578	909.975159	268.673889	-989.949280	915.981995	-30.440081	-1167.964111	929.126404	153.494293	-1143.694458	1041.684692	152.090225	-883.468323	1018.885559	137.438416	-1039.724731	580.381165	311.814911	-1058.131470	432.608551	238.421280	-1085.598267	282.021240	275.501556	-1119.300171	49.577511	201.687286	-1172.388672	37.656380	142.311768	-998.404724	39.616367	180.065735	-973.939209	607.717163	-79.320152	-911.252563	457.311249	-11.301030	-986.058350	300.358337	-76.935257	-1041.506836	99.310013	12.711394	-1098.622559	94.631424	73.016144	-931.783691	51.576290	37.387737
147	1.46000000	-942.535400	1306.648926	320.340057	-973.101257	1322.453369	-13.901924	-1033.324951	1382.858765	171.970840	-898.579041	1273.522949	144.134781	-1025.884033	996.605957	424.014374	-1074.292480	1010.128418	-115.251480	-954.574493	753.711151	417.701859	-1017.507233	769.031219	-116.580402	-928.734192	908.939087	269.759399	-976.878296	914.497925	-29.419844	-1155.567505	927.709595	153.172791	-1131.375488	1040.373291	152.458359	-871.011963	1017.723083	137.094070	-1031.189453	579.680603	312.065979	-1055.732178	432.894531	238.494949	-1084.765869	282.443634	275.823914	-1119.333862	49.774982	201.725449	-1172.414673	38.137268	142.334076	-998.356384	39.520065	180.092606	-956.598022	607.732056	-79.035439	-892.126465	457.475372	-10.071398	-959.228088	296.714752	-75.856812	-1001.773499	92.114670	13.137282	-1058.148071	83.884941	73.838684	-889.368164	50.650352	36.668194
148	1.47000000	-929.234558	1304.820801	320.271271	-961.617554	1321.136719	-13.958919	-1020.527771	1381.320679	172.502151	-886.071045	1271.830444	143.841568	-1010.403564	994.806885	424.975830	-1067.807983	1009.709351	-114.158752	-937.821228	752.290344	419.001099	-1015.315765	767.671295	-114.606464	-916.761841	907.686340	270.804901	-963.805420	912.601685	-28.507206	-1143.088501	926.097351	152.863571	-1119.005981	1038.833862	152.683167	-858.485474	1016.418091	136.701874	-1023.292542	579.024414	312.243011	-1053.295776	433.291809	238.622925	-1084.031860	283.047943	276.195465	-1119.383423	50.075996	201.756989	-1172.443115	38.772633	142.307709	-998.335571	39.424297	180.156387	-939.732849	607.307617	-78.604797	-873.673157	457.153870	-8.764369	-932.196533	292.797607	-74.851738	-961.464111	85.410034	13.481524	-1017.025452	73.747734	74.450729	-846.760864	50.298347	36.201115
149	1.48000000	-916.012085	1302.820679	320.147400	-950.077820	1319.647705	-14.063444	-1007.762817	1379.569824	172.939957	-873.551514	1269.993164	143.542313	-994.955627	992.844788	425.817749	-1061.297485	1009.180176	-112.990234	-921.038177	750.734161	420.294556	-1012.800995	766.357269	-112.725517	-904.696594	906.225525	271.775818	-950.706604	910.375916	-27.710835	-1130.520386	924.296265	152.571243	-1106.580322	1037.078735	152.772079	-845.886902	1014.958984	136.264969	-1016.105042	578.491455	312.376648	-1050.703979	433.784851	238.777878	-1083.254517	283.822052	276.569153	-1119.429565	50.507427	201.751251	-1172.447021	39.598080	142.207336	-998.326050	39.327145	180.238113	-923.467957	606.377563	-77.983475	-855.852295	456.332520	-7.406868	-904.915466	288.705109	-73.944771	-920.748901	79.381035	13.768237	-975.459778	64.436447	74.866661	-804.148987	50.628159	36.042664
150	1.49000000	-902.857239	1300.672363	319.963623	-938.475830	1317.994385	-14.215876	-995.031250	1377.624023	173.282135	-861.019958	1268.024536	143.236877	-979.561646	990.743469	426.533875	-1054.706909	1008.545654	-111.757271	-904.237213	749.069824	421.576904	-1009.951050	765.060852	-110.950459	-892.529663	904.577942	272.638245	-937.548035	907.909302	-27.029095	-1117.859009	922.315186	152.293732	-1094.099487	1035.127930	152.732620	-833.211121	1013.335449	135.784027	-1009.629089	578.143677	312.499603	-1047.818970	434.355286	238.926712	-1082.269775	284.740753	276.889954	-1119.448486	51.093525	201.675964	-1172.392578	40.641861	142.003754	-998.307739	39.229488	180.317490	-907.909607	604.901245	-77.147461	-838.600769	455.026520	-6.023665	-877.416321	284.579681	-73.141495	-879.868469	74.198647	14.026845	-933.715454	56.138252	75.112938	-761.772888	51.730862	36.223179
151	1.50000000	-889.761841	1298.399536	319.717957	-926.804749	1316.189453	-14.417280	-982.331360	1375.509521	173.526703	-848.474548	1265.943237	142.920532	-964.243225	988.524719	427.119324	-1047.977173	1007.810547	-110.479874	-887.434540	747.320709	422.839539	-1006.763672	763.753693	-109.286472	-880.256287	902.777893	273.364746	-924.297546	905.286499	-26.453768	-1105.102417	920.167664	152.023758	-1081.565918	1033.009277	152.570572	-820.451782	1011.543945	135.260635	-1003.769226	578.017395	312.632477	-1044.502319	434.985229	239.037506	-1080.926025	285.777191	277.105225	-1119.415405	51.854156	201.505096	-1172.246460	41.924469	141.669800	-998.259338	39.135761	180.380463	-893.115417	602.869690	-76.106628	-821.843018	453.281433	-4.629117	-849.825439	280.588531	-72.423660	-839.135132	70.000999	14.290724	-892.122864	48.992798	75.227303	-719.929504	53.674393	36.747829
